<svg xmlns="http://www.w3.org/2000/svg" width="900" height="1200" viewBox="0 0 900 1200"><rect width="900" height="1200" fill="#FBF0D6"/><circle cx="236" cy="610" r="168" fill="#F8D57A"/><path d="M0 730 C90 650 170 628 260 660 C340 612 430 580 520 630 C610 590 720 560 900 610 V880 H0 Z" fill="#EACAA4"/><path d="M0 790 C120 740 220 745 300 772 C390 735 480 728 580 764 V880 H0 Z" fill="#DFB68D"/><rect y="836" width="900" height="364" fill="#2461B0"/><path d="M0.1 1103.9h52.7M442.2 920.2h41.9M691.6 942h28.6M440 877.1h54.3M315.2 1092.3h22.9M86.6 890.1h24.5M36.2 989.2h48.7M295.6 977.9h39.6M538.7 881h55.3M512.6 1095.5h47M81.7 862h38.5M697.7 1006.5h53.7M199.8 1143.1h50.5M470.5 920.1h43.3M123.1 1122.6h45.3M368.5 944.6h41.2M508.8 912.7h21.9M22.7 1177.8h48.9M381.2 1018.9h26.7M595.5 889.9h28.9M698.4 1050.4h51.7M489.8 1090.2h32.9M412.3 1149.7h54.1M384.1 1024.8h20.7M573.1 920.9h23M527.4 1103.4h20.1M694.3 915.8h33.4M442.9 966.6h36.3M163.2 930.5h36.4M163.6 1176.4h44.4M628 998.5h32.9M545.1 992.3h48.6M457.6 1075h44.2M506.3 950.7h51.1M22 1098.4h27.1M3.3 1132.2h45.8M156.4 1009.8h20.5M499.9 1066.8h46.2M85.3 1078.5h32.2M327.4 862.9h47.6M637.6 1105.2h20.5M490.1 1040.6h54.2M487.1 872.2h50M467.8 1060.6h45.7M109.9 958.6h22.1M99.6 1018.3h21.9" stroke="#5A90D2" stroke-width="4" stroke-linecap="round" opacity="0.7"/><path d="M80 930 Q120 952 164 924 Z" fill="#FFF8EC"/><path d="M86 935 Q120 951 158 929" fill="none" stroke="#E4605A" stroke-width="4"/><rect x="108" y="914" width="22" height="14" rx="3" fill="#FFF8EC"/><path d="M50 944 h40 M150 942 h50" stroke="#5A90D2" stroke-width="3" stroke-linecap="round"/><path d="M258 1004 Q290 1021.6 325.2 999.2 Z" fill="#FFF8EC"/><path d="M262.8 1008 Q290 1020.8 320.4 1003.2" fill="none" stroke="#1E4B9C" stroke-width="3.2"/><rect x="280.4" y="991.2" width="17.6" height="11.200000000000001" rx="2.4000000000000004" fill="#FFF8EC"/><path d="M234 1015.2 h32 M314 1013.6 h40" stroke="#5A90D2" stroke-width="3" stroke-linecap="round"/><path d="M54 1068 Q96 1091.1 142.2 1061.7 Z" fill="#FFF8EC"/><path d="M60.3 1073.25 Q96 1090.05 135.9 1066.95" fill="none" stroke="#4E8B5B" stroke-width="4.2"/><rect x="83.4" y="1051.2" width="23.1" height="14.700000000000001" rx="3.1500000000000004" fill="#FFF8EC"/><path d="M22.5 1082.7 h42 M127.5 1080.6 h52.5" stroke="#5A90D2" stroke-width="3" stroke-linecap="round"/><path d="M900 520 L720 575 L580 690 L480 850 L436 960 L390 1110 L370 1200 L900 1200 Z" fill="#CD9D71"/><path d="M900 600 L760 640 L660 760 L600 900 L560 1040 L540 1200 L900 1200 Z" fill="#B7875D" opacity="0.45"/><rect x="700.2" y="552.5" width="79.3" height="47.8" fill="#FFF8EC"/><rect x="771.5" y="552.5" width="8" height="47.8" fill="#000" opacity="0.07"/><path d="M704.2 552.5 Q739.9 530.5 775.5 552.5 Z" fill="#FFF8EC"/><path d="M719.6 588.5 V575.5 a7 7 0 0 1 14 0 V588.5 Z" fill="#34466E"/><rect x="712.6" y="571.5" width="6" height="17" fill="#4E8B5B"/><rect x="734.6" y="571.5" width="6" height="17" fill="#4E8B5B"/><path d="M746.1 588.5 V575.5 a7 7 0 0 1 14 0 V588.5 Z" fill="#34466E"/><rect x="739.1" y="571.5" width="6" height="17" fill="#4E8B5B"/><rect x="761.1" y="571.5" width="6" height="17" fill="#4E8B5B"/><rect x="787.3" y="555.7" width="84" height="45.9" fill="#FFF8EC"/><rect x="863.3" y="555.7" width="8" height="45.9" fill="#000" opacity="0.07"/><path d="M791.3 555.7 Q829.3 533.7 867.3 555.7 Z" fill="#FFF8EC"/><path d="M808.3 591.7 V578.7 a7 7 0 0 1 14 0 V591.7 Z" fill="#34466E"/><rect x="801.3" y="574.7" width="6" height="17" fill="#4E8B5B"/><rect x="823.3" y="574.7" width="6" height="17" fill="#4E8B5B"/><path d="M836.3 591.7 V578.7 a7 7 0 0 1 14 0 V591.7 Z" fill="#34466E"/><rect x="876.3" y="550.8" width="55.4" height="53.2" fill="#FFF8EC"/><rect x="923.7" y="550.8" width="8" height="53.2" fill="#000" opacity="0.07"/><rect x="874.3" y="545.8" width="59.4" height="6" fill="#FFF8EC"/><path d="M897 586.8 V573.8 a7 7 0 0 1 14 0 V586.8 Z" fill="#34466E"/><rect x="642" y="599.7" width="57.8" height="51.9" fill="#F8DA8E"/><rect x="691.8" y="599.7" width="8" height="51.9" fill="#000" opacity="0.07"/><rect x="640" y="594.7" width="61.8" height="6" fill="#F8DA8E"/><path d="M663.9 635.7 V622.7 a7 7 0 0 1 14 0 V635.7 Z" fill="#34466E"/><rect x="656.9" y="618.7" width="6" height="17" fill="#4E8B5B"/><rect x="678.9" y="618.7" width="6" height="17" fill="#4E8B5B"/><rect x="704" y="599.6" width="79.2" height="52" fill="#F8DA8E"/><rect x="775.2" y="599.6" width="8" height="52" fill="#000" opacity="0.07"/><path d="M729.6 599.6 a14 14 0 0 1 28 0 Z" fill="#C8603E"/><path d="M723.4 635.6 V622.6 a7 7 0 0 1 14 0 V635.6 Z" fill="#34466E"/><rect x="716.4" y="618.6" width="6" height="17" fill="#4E8B5B"/><rect x="738.4" y="618.6" width="6" height="17" fill="#4E8B5B"/><path d="M749.8 635.6 V622.6 a7 7 0 0 1 14 0 V635.6 Z" fill="#34466E"/><rect x="789.6" y="596.8" width="65.6" height="51.2" fill="#F8DA8E"/><rect x="847.2" y="596.8" width="8" height="51.2" fill="#000" opacity="0.07"/><rect x="787.6" y="591.8" width="69.6" height="6" fill="#F8DA8E"/><path d="M804.5 632.8 V619.8 a7 7 0 0 1 14 0 V632.8 Z" fill="#34466E"/><rect x="797.5" y="615.8" width="6" height="17" fill="#4E8B5B"/><rect x="819.5" y="615.8" width="6" height="17" fill="#4E8B5B"/><path d="M826.3 632.8 V619.8 a7 7 0 0 1 14 0 V632.8 Z" fill="#34466E"/><rect x="819.3" y="615.8" width="6" height="17" fill="#4E8B5B"/><rect x="841.3" y="615.8" width="6" height="17" fill="#4E8B5B"/><rect x="858.4" y="605.8" width="57.9" height="41.7" fill="#FFF8EC"/><rect x="908.4" y="605.8" width="8" height="41.7" fill="#000" opacity="0.07"/><rect x="856.4" y="600.8" width="61.9" height="6" fill="#FFF8EC"/><path d="M880.4 641.8 V628.8 a7 7 0 0 1 14 0 V641.8 Z" fill="#34466E"/><rect x="873.4" y="624.8" width="6" height="17" fill="#4E8B5B"/><rect x="895.4" y="624.8" width="6" height="17" fill="#4E8B5B"/><rect x="587.1" y="643.7" width="84.4" height="54.1" fill="#F4B6A8"/><rect x="663.5" y="643.7" width="8" height="54.1" fill="#000" opacity="0.07"/><path d="M591.1 643.7 Q629.3 621.7 667.5 643.7 Z" fill="#F4B6A8"/><path d="M608.2 679.7 V666.7 a7 7 0 0 1 14 0 V679.7 Z" fill="#34466E"/><path d="M636.4 679.7 V666.7 a7 7 0 0 1 14 0 V679.7 Z" fill="#34466E"/><rect x="629.4" y="662.7" width="6" height="17" fill="#4E8B5B"/><rect x="651.4" y="662.7" width="6" height="17" fill="#4E8B5B"/><rect x="677" y="656.4" width="78.1" height="40.9" fill="#FFF8EC"/><rect x="747.1" y="656.4" width="8" height="40.9" fill="#000" opacity="0.07"/><path d="M681 656.4 Q716 634.4 751.1 656.4 Z" fill="#FFF8EC"/><path d="M696 692.4 V679.4 a7 7 0 0 1 14 0 V692.4 Z" fill="#34466E"/><rect x="689" y="675.4" width="6" height="17" fill="#4E8B5B"/><rect x="711" y="675.4" width="6" height="17" fill="#4E8B5B"/><path d="M722.1 692.4 V679.4 a7 7 0 0 1 14 0 V692.4 Z" fill="#34466E"/><rect x="760" y="645.3" width="50.9" height="48.2" fill="#F4B6A8"/><rect x="802.9" y="645.3" width="8" height="48.2" fill="#000" opacity="0.07"/><path d="M764 645.3 Q785.5 623.3 806.9 645.3 Z" fill="#F4B6A8"/><path d="M778.5 681.3 V668.3 a7 7 0 0 1 14 0 V681.3 Z" fill="#34466E"/><rect x="817.1" y="642.9" width="82.8" height="51.5" fill="#F2A56A"/><rect x="891.9" y="642.9" width="8" height="51.5" fill="#000" opacity="0.07"/><path d="M821.1 642.9 Q858.5 620.9 895.9 642.9 Z" fill="#F2A56A"/><path d="M837.7 678.9 V665.9 a7 7 0 0 1 14 0 V678.9 Z" fill="#34466E"/><rect x="830.7" y="661.9" width="6" height="17" fill="#4E8B5B"/><rect x="852.7" y="661.9" width="6" height="17" fill="#4E8B5B"/><path d="M865.3 678.9 V665.9 a7 7 0 0 1 14 0 V678.9 Z" fill="#34466E"/><rect x="559.7" y="692.7" width="46.9" height="46.5" fill="#FFF8EC"/><rect x="598.7" y="692.7" width="8" height="46.5" fill="#000" opacity="0.07"/><path d="M563.7 692.7 Q583.2 670.7 602.7 692.7 Z" fill="#FFF8EC"/><path d="M576.2 728.7 V715.7 a7 7 0 0 1 14 0 V728.7 Z" fill="#34466E"/><rect x="569.2" y="711.7" width="6" height="17" fill="#4E8B5B"/><rect x="591.2" y="711.7" width="6" height="17" fill="#4E8B5B"/><rect x="608.9" y="693.5" width="86.6" height="49.1" fill="#F2A56A"/><rect x="687.5" y="693.5" width="8" height="49.1" fill="#000" opacity="0.07"/><path d="M638.2 693.5 a14 14 0 0 1 28 0 Z" fill="#C8603E"/><path d="M630.8 729.5 V716.5 a7 7 0 0 1 14 0 V729.5 Z" fill="#34466E"/><rect x="623.8" y="712.5" width="6" height="17" fill="#4E8B5B"/><rect x="645.8" y="712.5" width="6" height="17" fill="#4E8B5B"/><path d="M659.7 729.5 V716.5 a7 7 0 0 1 14 0 V729.5 Z" fill="#34466E"/><rect x="652.7" y="712.5" width="6" height="17" fill="#4E8B5B"/><rect x="674.7" y="712.5" width="6" height="17" fill="#4E8B5B"/><rect x="698.6" y="687.3" width="56.3" height="56.4" fill="#FFF8EC"/><rect x="747" y="687.3" width="8" height="56.4" fill="#000" opacity="0.07"/><path d="M712.8 687.3 a14 14 0 0 1 28 0 Z" fill="#C8603E"/><path d="M719.8 723.3 V710.3 a7 7 0 0 1 14 0 V723.3 Z" fill="#34466E"/><rect x="712.8" y="706.3" width="6" height="17" fill="#4E8B5B"/><rect x="734.8" y="706.3" width="6" height="17" fill="#4E8B5B"/><rect x="755.2" y="679.2" width="56.6" height="58.9" fill="#FFF8EC"/><rect x="803.8" y="679.2" width="8" height="58.9" fill="#000" opacity="0.07"/><path d="M759.2 679.2 Q783.5 657.2 807.8 679.2 Z" fill="#FFF8EC"/><path d="M776.5 715.2 V702.2 a7 7 0 0 1 14 0 V715.2 Z" fill="#34466E"/><rect x="816.8" y="693.1" width="80" height="46.6" fill="#F4B6A8"/><rect x="888.8" y="693.1" width="8" height="46.6" fill="#000" opacity="0.07"/><rect x="814.8" y="688.1" width="84" height="6" fill="#F4B6A8"/><path d="M836.5 729.1 V716.1 a7 7 0 0 1 14 0 V729.1 Z" fill="#34466E"/><rect x="829.5" y="712.1" width="6" height="17" fill="#4E8B5B"/><rect x="851.5" y="712.1" width="6" height="17" fill="#4E8B5B"/><path d="M863.1 729.1 V716.1 a7 7 0 0 1 14 0 V729.1 Z" fill="#34466E"/><rect x="537.3" y="742.5" width="47.9" height="44.4" fill="#F8DA8E"/><rect x="577.2" y="742.5" width="8" height="44.4" fill="#000" opacity="0.07"/><rect x="535.3" y="737.5" width="51.9" height="6" fill="#F8DA8E"/><path d="M554.3 778.5 V765.5 a7 7 0 0 1 14 0 V778.5 Z" fill="#34466E"/><rect x="593.2" y="744.2" width="85.5" height="43.7" fill="#F2A56A"/><rect x="670.7" y="744.2" width="8" height="43.7" fill="#000" opacity="0.07"/><rect x="591.2" y="739.2" width="89.5" height="6" fill="#F2A56A"/><path d="M614.7 780.2 V767.2 a7 7 0 0 1 14 0 V780.2 Z" fill="#34466E"/><path d="M643.2 780.2 V767.2 a7 7 0 0 1 14 0 V780.2 Z" fill="#34466E"/><rect x="636.2" y="763.2" width="6" height="17" fill="#4E8B5B"/><rect x="658.2" y="763.2" width="6" height="17" fill="#4E8B5B"/><rect x="685.4" y="744" width="86.7" height="41.5" fill="#FFF8EC"/><rect x="764.1" y="744" width="8" height="41.5" fill="#000" opacity="0.07"/><rect x="683.4" y="739" width="90.7" height="6" fill="#FFF8EC"/><path d="M707.3 780 V767 a7 7 0 0 1 14 0 V780 Z" fill="#34466E"/><path d="M736.2 780 V767 a7 7 0 0 1 14 0 V780 Z" fill="#34466E"/><rect x="778.8" y="735.9" width="61.9" height="52.4" fill="#F8DA8E"/><rect x="832.7" y="735.9" width="8" height="52.4" fill="#000" opacity="0.07"/><path d="M782.8 735.9 Q809.7 713.9 836.7 735.9 Z" fill="#F8DA8E"/><path d="M802.7 771.9 V758.9 a7 7 0 0 1 14 0 V771.9 Z" fill="#34466E"/><rect x="795.7" y="754.9" width="6" height="17" fill="#4E8B5B"/><rect x="817.7" y="754.9" width="6" height="17" fill="#4E8B5B"/><rect x="842.7" y="745" width="85.8" height="42.7" fill="#F4B6A8"/><rect x="920.5" y="745" width="8" height="42.7" fill="#000" opacity="0.07"/><rect x="840.7" y="740" width="89.8" height="6" fill="#F4B6A8"/><path d="M864.3 781 V768 a7 7 0 0 1 14 0 V781 Z" fill="#34466E"/><rect x="857.3" y="764" width="6" height="17" fill="#4E8B5B"/><rect x="879.3" y="764" width="6" height="17" fill="#4E8B5B"/><path d="M892.9 781 V768 a7 7 0 0 1 14 0 V781 Z" fill="#34466E"/><rect x="885.9" y="764" width="6" height="17" fill="#4E8B5B"/><rect x="907.9" y="764" width="6" height="17" fill="#4E8B5B"/><rect x="560" y="708" width="100" height="84" fill="#FFF8EC"/><rect x="578" y="676" width="64" height="34" fill="#FFF8EC"/><path d="M572 678 C572 606 648 606 648 678 Z" fill="#F6CB2F"/><path d="M590 676 C588 640 598 622 610 616 M630 676 C632 640 622 622 610 616 M610 676 V616" fill="none" stroke="#3E7B39" stroke-width="5"/><path d="M572 678 C574 660 590 646 610 642 C630 646 646 660 648 678 Z" fill="#63A24C" opacity="0.55"/><rect x="606" y="586" width="8" height="32" fill="#FFF8EC"/><rect x="598" y="596" width="24" height="7" fill="#FFF8EC"/><path d="M596 792 V752 a14 14 0 0 1 28 0 V792 Z" fill="#34466E"/><rect x="672" y="630" width="44" height="162" fill="#FFF8EC"/><path d="M672 632 L694 604 L716 632 Z" fill="#C8603E"/><path d="M684 676 V660 a10 10 0 0 1 20 0 V676 Z M684 716 V700 a10 10 0 0 1 20 0 V716 Z" fill="#34466E"/><rect x="499.3" y="789.7" width="59.3" height="43.7" fill="#F4B6A8"/><rect x="550.6" y="789.7" width="8" height="43.7" fill="#000" opacity="0.07"/><rect x="497.3" y="784.7" width="63.3" height="6" fill="#F4B6A8"/><path d="M522 825.7 V812.7 a7 7 0 0 1 14 0 V825.7 Z" fill="#34466E"/><rect x="515" y="808.7" width="6" height="17" fill="#4E8B5B"/><rect x="537" y="808.7" width="6" height="17" fill="#4E8B5B"/><rect x="561.3" y="792.8" width="46.6" height="41" fill="#F4B6A8"/><rect x="599.9" y="792.8" width="8" height="41" fill="#000" opacity="0.07"/><rect x="559.3" y="787.8" width="50.6" height="6" fill="#F4B6A8"/><path d="M577.6 828.8 V815.8 a7 7 0 0 1 14 0 V828.8 Z" fill="#34466E"/><rect x="570.6" y="811.8" width="6" height="17" fill="#4E8B5B"/><rect x="592.6" y="811.8" width="6" height="17" fill="#4E8B5B"/><rect x="605.9" y="786.6" width="63.4" height="43.8" fill="#FFF8EC"/><rect x="661.3" y="786.6" width="8" height="43.8" fill="#000" opacity="0.07"/><rect x="603.9" y="781.6" width="67.4" height="6" fill="#FFF8EC"/><path d="M630.6 822.6 V809.6 a7 7 0 0 1 14 0 V822.6 Z" fill="#34466E"/><rect x="623.6" y="805.6" width="6" height="17" fill="#4E8B5B"/><rect x="645.6" y="805.6" width="6" height="17" fill="#4E8B5B"/><rect x="673.7" y="791.2" width="83" height="42" fill="#F4B6A8"/><rect x="748.8" y="791.2" width="8" height="42" fill="#000" opacity="0.07"/><rect x="671.7" y="786.2" width="87" height="6" fill="#F4B6A8"/><path d="M694.4 827.2 V814.2 a7 7 0 0 1 14 0 V827.2 Z" fill="#34466E"/><path d="M722.1 827.2 V814.2 a7 7 0 0 1 14 0 V827.2 Z" fill="#34466E"/><rect x="762.5" y="788.3" width="57.1" height="47.7" fill="#FFF8EC"/><rect x="811.6" y="788.3" width="8" height="47.7" fill="#000" opacity="0.07"/><rect x="760.5" y="783.3" width="61.1" height="6" fill="#FFF8EC"/><path d="M784.1 824.3 V811.3 a7 7 0 0 1 14 0 V824.3 Z" fill="#34466E"/><rect x="777.1" y="807.3" width="6" height="17" fill="#4E8B5B"/><rect x="799.1" y="807.3" width="6" height="17" fill="#4E8B5B"/><rect x="825.3" y="789.1" width="60.6" height="42.1" fill="#F4B6A8"/><rect x="877.9" y="789.1" width="8" height="42.1" fill="#000" opacity="0.07"/><path d="M829.3 789.1 Q855.6 767.1 881.9 789.1 Z" fill="#F4B6A8"/><path d="M848.6 825.1 V812.1 a7 7 0 0 1 14 0 V825.1 Z" fill="#34466E"/><rect x="892.3" y="779.6" width="75.7" height="54.9" fill="#FFF8EC"/><rect x="960" y="779.6" width="8" height="54.9" fill="#000" opacity="0.07"/><rect x="890.3" y="774.6" width="79.7" height="6" fill="#FFF8EC"/><path d="M910.5 815.6 V802.6 a7 7 0 0 1 14 0 V815.6 Z" fill="#34466E"/><rect x="903.5" y="798.6" width="6" height="17" fill="#4E8B5B"/><rect x="925.5" y="798.6" width="6" height="17" fill="#4E8B5B"/><path d="M935.8 815.6 V802.6 a7 7 0 0 1 14 0 V815.6 Z" fill="#34466E"/><rect x="485.6" y="835.9" width="53" height="41.4" fill="#F8DA8E"/><rect x="530.6" y="835.9" width="8" height="41.4" fill="#000" opacity="0.07"/><rect x="483.6" y="830.9" width="57" height="6" fill="#F8DA8E"/><path d="M505.1 871.9 V858.9 a7 7 0 0 1 14 0 V871.9 Z" fill="#34466E"/><rect x="539.7" y="828.8" width="79.4" height="50.1" fill="#F4B6A8"/><rect x="611.1" y="828.8" width="8" height="50.1" fill="#000" opacity="0.07"/><rect x="537.7" y="823.8" width="83.4" height="6" fill="#F4B6A8"/><path d="M559.2 864.8 V851.8 a7 7 0 0 1 14 0 V864.8 Z" fill="#34466E"/><path d="M585.6 864.8 V851.8 a7 7 0 0 1 14 0 V864.8 Z" fill="#34466E"/><rect x="624.3" y="825.5" width="71.3" height="51.4" fill="#F8DA8E"/><rect x="687.6" y="825.5" width="8" height="51.4" fill="#000" opacity="0.07"/><path d="M646 825.5 a14 14 0 0 1 28 0 Z" fill="#C8603E"/><path d="M641.1 861.5 V848.5 a7 7 0 0 1 14 0 V861.5 Z" fill="#34466E"/><rect x="634.1" y="844.5" width="6" height="17" fill="#4E8B5B"/><rect x="656.1" y="844.5" width="6" height="17" fill="#4E8B5B"/><path d="M664.9 861.5 V848.5 a7 7 0 0 1 14 0 V861.5 Z" fill="#34466E"/><rect x="657.9" y="844.5" width="6" height="17" fill="#4E8B5B"/><rect x="679.9" y="844.5" width="6" height="17" fill="#4E8B5B"/><rect x="695.3" y="825.2" width="56.2" height="55.7" fill="#F2A56A"/><rect x="743.5" y="825.2" width="8" height="55.7" fill="#000" opacity="0.07"/><rect x="693.3" y="820.2" width="60.2" height="6" fill="#F2A56A"/><path d="M716.4 861.2 V848.2 a7 7 0 0 1 14 0 V861.2 Z" fill="#34466E"/><rect x="709.4" y="844.2" width="6" height="17" fill="#4E8B5B"/><rect x="731.4" y="844.2" width="6" height="17" fill="#4E8B5B"/><rect x="755.4" y="831.9" width="49.9" height="48.2" fill="#F8DA8E"/><rect x="797.3" y="831.9" width="8" height="48.2" fill="#000" opacity="0.07"/><rect x="753.4" y="826.9" width="53.9" height="6" fill="#F8DA8E"/><path d="M773.4 867.9 V854.9 a7 7 0 0 1 14 0 V867.9 Z" fill="#34466E"/><rect x="810.1" y="835" width="53.3" height="42.7" fill="#F8DA8E"/><rect x="855.4" y="835" width="8" height="42.7" fill="#000" opacity="0.07"/><path d="M822.8 835 a14 14 0 0 1 28 0 Z" fill="#C8603E"/><path d="M829.8 871 V858 a7 7 0 0 1 14 0 V871 Z" fill="#34466E"/><rect x="863.3" y="835" width="69.4" height="42" fill="#F4B6A8"/><rect x="924.7" y="835" width="8" height="42" fill="#000" opacity="0.07"/><rect x="861.3" y="830" width="73.4" height="6" fill="#F4B6A8"/><path d="M879.4 871 V858 a7 7 0 0 1 14 0 V871 Z" fill="#34466E"/><path d="M902.5 871 V858 a7 7 0 0 1 14 0 V871 Z" fill="#34466E"/><rect x="895.5" y="854" width="6" height="17" fill="#4E8B5B"/><rect x="917.5" y="854" width="6" height="17" fill="#4E8B5B"/><rect x="468.5" y="872.9" width="64" height="50.3" fill="#FFF8EC"/><rect x="524.5" y="872.9" width="8" height="50.3" fill="#000" opacity="0.07"/><rect x="466.5" y="867.9" width="68" height="6" fill="#FFF8EC"/><path d="M493.5 908.9 V895.9 a7 7 0 0 1 14 0 V908.9 Z" fill="#34466E"/><rect x="536.8" y="874.5" width="53.1" height="49.7" fill="#FFF8EC"/><rect x="581.9" y="874.5" width="8" height="49.7" fill="#000" opacity="0.07"/><path d="M540.8 874.5 Q563.4 852.5 585.9 874.5 Z" fill="#FFF8EC"/><path d="M556.4 910.5 V897.5 a7 7 0 0 1 14 0 V910.5 Z" fill="#34466E"/><rect x="588.3" y="865.9" width="72.4" height="58.4" fill="#FFF8EC"/><rect x="652.7" y="865.9" width="8" height="58.4" fill="#000" opacity="0.07"/><path d="M592.3 865.9 Q624.5 843.9 656.7 865.9 Z" fill="#FFF8EC"/><path d="M605.4 901.9 V888.9 a7 7 0 0 1 14 0 V901.9 Z" fill="#34466E"/><rect x="598.4" y="884.9" width="6" height="17" fill="#4E8B5B"/><rect x="620.4" y="884.9" width="6" height="17" fill="#4E8B5B"/><path d="M629.5 901.9 V888.9 a7 7 0 0 1 14 0 V901.9 Z" fill="#34466E"/><rect x="622.5" y="884.9" width="6" height="17" fill="#4E8B5B"/><rect x="644.5" y="884.9" width="6" height="17" fill="#4E8B5B"/><rect x="660" y="864.1" width="59.4" height="59.1" fill="#FFF8EC"/><rect x="711.4" y="864.1" width="8" height="59.1" fill="#000" opacity="0.07"/><path d="M675.7 864.1 a14 14 0 0 1 28 0 Z" fill="#C8603E"/><path d="M682.7 900.1 V887.1 a7 7 0 0 1 14 0 V900.1 Z" fill="#34466E"/><rect x="727.2" y="865.1" width="73.1" height="58.6" fill="#FFF8EC"/><rect x="792.3" y="865.1" width="8" height="58.6" fill="#000" opacity="0.07"/><rect x="725.2" y="860.1" width="77.1" height="6" fill="#FFF8EC"/><path d="M744.6 901.1 V888.1 a7 7 0 0 1 14 0 V901.1 Z" fill="#34466E"/><path d="M769 901.1 V888.1 a7 7 0 0 1 14 0 V901.1 Z" fill="#34466E"/><rect x="805.8" y="878.9" width="71.2" height="48.8" fill="#F8DA8E"/><rect x="869" y="878.9" width="8" height="48.8" fill="#000" opacity="0.07"/><rect x="803.8" y="873.9" width="75.2" height="6" fill="#F8DA8E"/><path d="M822.5 914.9 V901.9 a7 7 0 0 1 14 0 V914.9 Z" fill="#34466E"/><rect x="815.5" y="897.9" width="6" height="17" fill="#4E8B5B"/><rect x="837.5" y="897.9" width="6" height="17" fill="#4E8B5B"/><path d="M846.3 914.9 V901.9 a7 7 0 0 1 14 0 V914.9 Z" fill="#34466E"/><rect x="839.3" y="897.9" width="6" height="17" fill="#4E8B5B"/><rect x="861.3" y="897.9" width="6" height="17" fill="#4E8B5B"/><rect x="881.1" y="875.7" width="47.5" height="49.9" fill="#F8DA8E"/><rect x="920.6" y="875.7" width="8" height="49.9" fill="#000" opacity="0.07"/><path d="M890.9 875.7 a14 14 0 0 1 28 0 Z" fill="#C8603E"/><path d="M897.9 911.7 V898.7 a7 7 0 0 1 14 0 V911.7 Z" fill="#34466E"/><rect x="440.6" y="931.1" width="83.7" height="42.7" fill="#F2A56A"/><rect x="516.3" y="931.1" width="8" height="42.7" fill="#000" opacity="0.07"/><path d="M468.4 931.1 a14 14 0 0 1 28 0 Z" fill="#C8603E"/><path d="M461.5 967.1 V954.1 a7 7 0 0 1 14 0 V967.1 Z" fill="#34466E"/><rect x="454.5" y="950.1" width="6" height="17" fill="#4E8B5B"/><rect x="476.5" y="950.1" width="6" height="17" fill="#4E8B5B"/><path d="M489.4 967.1 V954.1 a7 7 0 0 1 14 0 V967.1 Z" fill="#34466E"/><rect x="482.4" y="950.1" width="6" height="17" fill="#4E8B5B"/><rect x="504.4" y="950.1" width="6" height="17" fill="#4E8B5B"/><rect x="526.7" y="923.2" width="63.6" height="47.7" fill="#FFF8EC"/><rect x="582.4" y="923.2" width="8" height="47.7" fill="#000" opacity="0.07"/><rect x="524.7" y="918.2" width="67.6" height="6" fill="#FFF8EC"/><path d="M551.6 959.2 V946.2 a7 7 0 0 1 14 0 V959.2 Z" fill="#34466E"/><rect x="544.6" y="942.2" width="6" height="17" fill="#4E8B5B"/><rect x="566.6" y="942.2" width="6" height="17" fill="#4E8B5B"/><rect x="589.1" y="924.6" width="78.2" height="48.7" fill="#F2A56A"/><rect x="659.3" y="924.6" width="8" height="48.7" fill="#000" opacity="0.07"/><rect x="587.1" y="919.6" width="82.2" height="6" fill="#F2A56A"/><path d="M608.2 960.6 V947.6 a7 7 0 0 1 14 0 V960.6 Z" fill="#34466E"/><path d="M634.2 960.6 V947.6 a7 7 0 0 1 14 0 V960.6 Z" fill="#34466E"/><rect x="627.2" y="943.6" width="6" height="17" fill="#4E8B5B"/><rect x="649.2" y="943.6" width="6" height="17" fill="#4E8B5B"/><rect x="672.2" y="928.5" width="62.7" height="43.2" fill="#F4B6A8"/><rect x="726.9" y="928.5" width="8" height="43.2" fill="#000" opacity="0.07"/><rect x="670.2" y="923.5" width="66.7" height="6" fill="#F4B6A8"/><path d="M696.5 964.5 V951.5 a7 7 0 0 1 14 0 V964.5 Z" fill="#34466E"/><rect x="737.9" y="927.7" width="78.3" height="42.2" fill="#F8DA8E"/><rect x="808.2" y="927.7" width="8" height="42.2" fill="#000" opacity="0.07"/><rect x="735.9" y="922.7" width="82.3" height="6" fill="#F8DA8E"/><path d="M757 963.7 V950.7 a7 7 0 0 1 14 0 V963.7 Z" fill="#34466E"/><rect x="750" y="946.7" width="6" height="17" fill="#4E8B5B"/><rect x="772" y="946.7" width="6" height="17" fill="#4E8B5B"/><path d="M783.1 963.7 V950.7 a7 7 0 0 1 14 0 V963.7 Z" fill="#34466E"/><rect x="776.1" y="946.7" width="6" height="17" fill="#4E8B5B"/><rect x="798.1" y="946.7" width="6" height="17" fill="#4E8B5B"/><rect x="822.3" y="913.8" width="77" height="59" fill="#FFF8EC"/><rect x="891.3" y="913.8" width="8" height="59" fill="#000" opacity="0.07"/><rect x="820.3" y="908.8" width="81" height="6" fill="#FFF8EC"/><path d="M841 949.8 V936.8 a7 7 0 0 1 14 0 V949.8 Z" fill="#34466E"/><rect x="834" y="932.8" width="6" height="17" fill="#4E8B5B"/><rect x="856" y="932.8" width="6" height="17" fill="#4E8B5B"/><path d="M866.7 949.8 V936.8 a7 7 0 0 1 14 0 V949.8 Z" fill="#34466E"/><rect x="859.7" y="932.8" width="6" height="17" fill="#4E8B5B"/><rect x="881.7" y="932.8" width="6" height="17" fill="#4E8B5B"/><rect x="430.4" y="959.7" width="46" height="58" fill="#F8DA8E"/><rect x="468.4" y="959.7" width="8" height="58" fill="#000" opacity="0.07"/><path d="M434.4 959.7 Q453.4 937.7 472.4 959.7 Z" fill="#F8DA8E"/><path d="M446.4 995.7 V982.7 a7 7 0 0 1 14 0 V995.7 Z" fill="#34466E"/><rect x="476.4" y="965.7" width="62.6" height="49.3" fill="#F8DA8E"/><rect x="531" y="965.7" width="8" height="49.3" fill="#000" opacity="0.07"/><path d="M480.4 965.7 Q507.7 943.7 535 965.7 Z" fill="#F8DA8E"/><path d="M500.7 1001.7 V988.7 a7 7 0 0 1 14 0 V1001.7 Z" fill="#34466E"/><rect x="546" y="968.3" width="55.3" height="47.4" fill="#F2A56A"/><rect x="593.3" y="968.3" width="8" height="47.4" fill="#000" opacity="0.07"/><rect x="544" y="963.3" width="59.3" height="6" fill="#F2A56A"/><path d="M566.6 1004.3 V991.3 a7 7 0 0 1 14 0 V1004.3 Z" fill="#34466E"/><rect x="559.6" y="987.3" width="6" height="17" fill="#4E8B5B"/><rect x="581.6" y="987.3" width="6" height="17" fill="#4E8B5B"/><rect x="602.9" y="971.4" width="72.8" height="46.2" fill="#F4B6A8"/><rect x="667.7" y="971.4" width="8" height="46.2" fill="#000" opacity="0.07"/><rect x="600.9" y="966.4" width="76.8" height="6" fill="#F4B6A8"/><path d="M620.2 1007.4 V994.4 a7 7 0 0 1 14 0 V1007.4 Z" fill="#34466E"/><path d="M644.4 1007.4 V994.4 a7 7 0 0 1 14 0 V1007.4 Z" fill="#34466E"/><rect x="678.5" y="975.1" width="72.4" height="41.1" fill="#F4B6A8"/><rect x="742.9" y="975.1" width="8" height="41.1" fill="#000" opacity="0.07"/><path d="M682.5 975.1 Q714.7 953.1 746.9 975.1 Z" fill="#F4B6A8"/><path d="M695.6 1011.1 V998.1 a7 7 0 0 1 14 0 V1011.1 Z" fill="#34466E"/><rect x="688.6" y="994.1" width="6" height="17" fill="#4E8B5B"/><rect x="710.6" y="994.1" width="6" height="17" fill="#4E8B5B"/><path d="M719.7 1011.1 V998.1 a7 7 0 0 1 14 0 V1011.1 Z" fill="#34466E"/><rect x="712.7" y="994.1" width="6" height="17" fill="#4E8B5B"/><rect x="734.7" y="994.1" width="6" height="17" fill="#4E8B5B"/><rect x="757.9" y="955" width="84.4" height="59.7" fill="#F4B6A8"/><rect x="834.3" y="955" width="8" height="59.7" fill="#000" opacity="0.07"/><rect x="755.9" y="950" width="88.4" height="6" fill="#F4B6A8"/><path d="M779 991 V978 a7 7 0 0 1 14 0 V991 Z" fill="#34466E"/><rect x="772" y="974" width="6" height="17" fill="#4E8B5B"/><rect x="794" y="974" width="6" height="17" fill="#4E8B5B"/><path d="M807.1 991 V978 a7 7 0 0 1 14 0 V991 Z" fill="#34466E"/><rect x="800.1" y="974" width="6" height="17" fill="#4E8B5B"/><rect x="822.1" y="974" width="6" height="17" fill="#4E8B5B"/><rect x="842" y="963.3" width="74.2" height="54.4" fill="#F4B6A8"/><rect x="908.1" y="963.3" width="8" height="54.4" fill="#000" opacity="0.07"/><rect x="840" y="958.3" width="78.2" height="6" fill="#F4B6A8"/><path d="M859.7 999.3 V986.3 a7 7 0 0 1 14 0 V999.3 Z" fill="#34466E"/><path d="M884.4 999.3 V986.3 a7 7 0 0 1 14 0 V999.3 Z" fill="#34466E"/><rect x="423.3" y="1019.5" width="86.5" height="41.7" fill="#F2A56A"/><rect x="501.8" y="1019.5" width="8" height="41.7" fill="#000" opacity="0.07"/><rect x="421.3" y="1014.5" width="90.5" height="6" fill="#F2A56A"/><path d="M445.1 1055.5 V1042.5 a7 7 0 0 1 14 0 V1055.5 Z" fill="#34466E"/><path d="M473.9 1055.5 V1042.5 a7 7 0 0 1 14 0 V1055.5 Z" fill="#34466E"/><rect x="509.1" y="1004.4" width="51.2" height="58.9" fill="#FFF8EC"/><rect x="552.3" y="1004.4" width="8" height="58.9" fill="#000" opacity="0.07"/><rect x="507.1" y="999.4" width="55.2" height="6" fill="#FFF8EC"/><path d="M527.7 1040.4 V1027.4 a7 7 0 0 1 14 0 V1040.4 Z" fill="#34466E"/><rect x="520.7" y="1023.4" width="6" height="17" fill="#4E8B5B"/><rect x="542.7" y="1023.4" width="6" height="17" fill="#4E8B5B"/><rect x="567.2" y="1014" width="76.9" height="46.4" fill="#F2A56A"/><rect x="636.2" y="1014" width="8" height="46.4" fill="#000" opacity="0.07"/><rect x="565.2" y="1009" width="80.9" height="6" fill="#F2A56A"/><path d="M585.9 1050 V1037 a7 7 0 0 1 14 0 V1050 Z" fill="#34466E"/><rect x="578.9" y="1033" width="6" height="17" fill="#4E8B5B"/><rect x="600.9" y="1033" width="6" height="17" fill="#4E8B5B"/><path d="M611.5 1050 V1037 a7 7 0 0 1 14 0 V1050 Z" fill="#34466E"/><rect x="604.5" y="1033" width="6" height="17" fill="#4E8B5B"/><rect x="626.5" y="1033" width="6" height="17" fill="#4E8B5B"/><rect x="644.5" y="1010.9" width="81.9" height="54.3" fill="#F2A56A"/><rect x="718.3" y="1010.9" width="8" height="54.3" fill="#000" opacity="0.07"/><rect x="642.5" y="1005.9" width="85.9" height="6" fill="#F2A56A"/><path d="M664.8 1046.9 V1033.9 a7 7 0 0 1 14 0 V1046.9 Z" fill="#34466E"/><path d="M692.1 1046.9 V1033.9 a7 7 0 0 1 14 0 V1046.9 Z" fill="#34466E"/><rect x="725.8" y="1016.3" width="76.9" height="46.9" fill="#F4B6A8"/><rect x="794.7" y="1016.3" width="8" height="46.9" fill="#000" opacity="0.07"/><rect x="723.8" y="1011.3" width="80.9" height="6" fill="#F4B6A8"/><path d="M744.4 1052.3 V1039.3 a7 7 0 0 1 14 0 V1052.3 Z" fill="#34466E"/><rect x="737.4" y="1035.3" width="6" height="17" fill="#4E8B5B"/><rect x="759.4" y="1035.3" width="6" height="17" fill="#4E8B5B"/><path d="M770 1052.3 V1039.3 a7 7 0 0 1 14 0 V1052.3 Z" fill="#34466E"/><rect x="810.2" y="1016.3" width="84.3" height="44.4" fill="#F4B6A8"/><rect x="886.5" y="1016.3" width="8" height="44.4" fill="#000" opacity="0.07"/><rect x="808.2" y="1011.3" width="88.3" height="6" fill="#F4B6A8"/><path d="M831.3 1052.3 V1039.3 a7 7 0 0 1 14 0 V1052.3 Z" fill="#34466E"/><rect x="824.3" y="1035.3" width="6" height="17" fill="#4E8B5B"/><rect x="846.3" y="1035.3" width="6" height="17" fill="#4E8B5B"/><path d="M859.4 1052.3 V1039.3 a7 7 0 0 1 14 0 V1052.3 Z" fill="#34466E"/><rect x="852.4" y="1035.3" width="6" height="17" fill="#4E8B5B"/><rect x="874.4" y="1035.3" width="6" height="17" fill="#4E8B5B"/><rect x="895.4" y="1011.1" width="84.2" height="53.9" fill="#F8DA8E"/><rect x="971.7" y="1011.1" width="8" height="53.9" fill="#000" opacity="0.07"/><path d="M923.5 1011.1 a14 14 0 0 1 28 0 Z" fill="#C8603E"/><path d="M916.5 1047.1 V1034.1 a7 7 0 0 1 14 0 V1047.1 Z" fill="#34466E"/><rect x="909.5" y="1030.1" width="6" height="17" fill="#4E8B5B"/><rect x="931.5" y="1030.1" width="6" height="17" fill="#4E8B5B"/><path d="M944.6 1047.1 V1034.1 a7 7 0 0 1 14 0 V1047.1 Z" fill="#34466E"/><rect x="937.6" y="1030.1" width="6" height="17" fill="#4E8B5B"/><rect x="959.6" y="1030.1" width="6" height="17" fill="#4E8B5B"/><rect x="409.6" y="1049.3" width="53" height="57.2" fill="#F2A56A"/><rect x="454.6" y="1049.3" width="8" height="57.2" fill="#000" opacity="0.07"/><path d="M413.6 1049.3 Q436.1 1027.3 458.6 1049.3 Z" fill="#F2A56A"/><path d="M429.1 1085.3 V1072.3 a7 7 0 0 1 14 0 V1085.3 Z" fill="#34466E"/><rect x="422.1" y="1068.3" width="6" height="17" fill="#4E8B5B"/><rect x="444.1" y="1068.3" width="6" height="17" fill="#4E8B5B"/><rect x="470.6" y="1052.2" width="75.2" height="56.3" fill="#F4B6A8"/><rect x="537.8" y="1052.2" width="8" height="56.3" fill="#000" opacity="0.07"/><rect x="468.6" y="1047.2" width="79.2" height="6" fill="#F4B6A8"/><path d="M488.6 1088.2 V1075.2 a7 7 0 0 1 14 0 V1088.2 Z" fill="#34466E"/><rect x="481.6" y="1071.2" width="6" height="17" fill="#4E8B5B"/><rect x="503.6" y="1071.2" width="6" height="17" fill="#4E8B5B"/><path d="M513.7 1088.2 V1075.2 a7 7 0 0 1 14 0 V1088.2 Z" fill="#34466E"/><rect x="544.2" y="1053.2" width="66.9" height="54.7" fill="#F4B6A8"/><rect x="603.1" y="1053.2" width="8" height="54.7" fill="#000" opacity="0.07"/><path d="M548.2 1053.2 Q577.7 1031.2 607.1 1053.2 Z" fill="#F4B6A8"/><path d="M559.5 1089.2 V1076.2 a7 7 0 0 1 14 0 V1089.2 Z" fill="#34466E"/><rect x="552.5" y="1072.2" width="6" height="17" fill="#4E8B5B"/><rect x="574.5" y="1072.2" width="6" height="17" fill="#4E8B5B"/><path d="M581.8 1089.2 V1076.2 a7 7 0 0 1 14 0 V1089.2 Z" fill="#34466E"/><rect x="618.6" y="1052.8" width="64.9" height="56.6" fill="#F2A56A"/><rect x="675.5" y="1052.8" width="8" height="56.6" fill="#000" opacity="0.07"/><path d="M622.6 1052.8 Q651.1 1030.8 679.5 1052.8 Z" fill="#F2A56A"/><path d="M633.3 1088.8 V1075.8 a7 7 0 0 1 14 0 V1088.8 Z" fill="#34466E"/><path d="M654.9 1088.8 V1075.8 a7 7 0 0 1 14 0 V1088.8 Z" fill="#34466E"/><rect x="685" y="1062.6" width="83.4" height="45" fill="#F4B6A8"/><rect x="760.4" y="1062.6" width="8" height="45" fill="#000" opacity="0.07"/><path d="M689 1062.6 Q726.7 1040.6 764.4 1062.6 Z" fill="#F4B6A8"/><path d="M705.8 1098.6 V1085.6 a7 7 0 0 1 14 0 V1098.6 Z" fill="#34466E"/><path d="M733.6 1098.6 V1085.6 a7 7 0 0 1 14 0 V1098.6 Z" fill="#34466E"/><rect x="775.3" y="1056.1" width="66.7" height="55.8" fill="#F4B6A8"/><rect x="834" y="1056.1" width="8" height="55.8" fill="#000" opacity="0.07"/><path d="M779.3 1056.1 Q808.7 1034.1 838 1056.1 Z" fill="#F4B6A8"/><path d="M790.6 1092.1 V1079.1 a7 7 0 0 1 14 0 V1092.1 Z" fill="#34466E"/><rect x="783.6" y="1075.1" width="6" height="17" fill="#4E8B5B"/><rect x="805.6" y="1075.1" width="6" height="17" fill="#4E8B5B"/><path d="M812.8 1092.1 V1079.1 a7 7 0 0 1 14 0 V1092.1 Z" fill="#34466E"/><rect x="805.8" y="1075.1" width="6" height="17" fill="#4E8B5B"/><rect x="827.8" y="1075.1" width="6" height="17" fill="#4E8B5B"/><rect x="844.8" y="1065.8" width="47.4" height="41.8" fill="#F8DA8E"/><rect x="884.2" y="1065.8" width="8" height="41.8" fill="#000" opacity="0.07"/><rect x="842.8" y="1060.8" width="51.4" height="6" fill="#F8DA8E"/><path d="M861.5 1101.8 V1088.8 a7 7 0 0 1 14 0 V1101.8 Z" fill="#34466E"/><rect x="896.8" y="1063" width="89.2" height="46.1" fill="#F2A56A"/><rect x="978" y="1063" width="8" height="46.1" fill="#000" opacity="0.07"/><rect x="894.8" y="1058" width="93.2" height="6" fill="#F2A56A"/><path d="M919.5 1099 V1086 a7 7 0 0 1 14 0 V1099 Z" fill="#34466E"/><path d="M949.3 1099 V1086 a7 7 0 0 1 14 0 V1099 Z" fill="#34466E"/><rect x="942.3" y="1082" width="6" height="17" fill="#4E8B5B"/><rect x="964.3" y="1082" width="6" height="17" fill="#4E8B5B"/><rect x="392.1" y="1101.8" width="65.2" height="50.5" fill="#FFF8EC"/><rect x="449.2" y="1101.8" width="8" height="50.5" fill="#000" opacity="0.07"/><path d="M410.7 1101.8 a14 14 0 0 1 28 0 Z" fill="#C8603E"/><path d="M406.8 1137.8 V1124.8 a7 7 0 0 1 14 0 V1137.8 Z" fill="#34466E"/><path d="M428.5 1137.8 V1124.8 a7 7 0 0 1 14 0 V1137.8 Z" fill="#34466E"/><rect x="421.5" y="1120.8" width="6" height="17" fill="#4E8B5B"/><rect x="443.5" y="1120.8" width="6" height="17" fill="#4E8B5B"/><rect x="457.2" y="1108.2" width="85.9" height="46.1" fill="#F8DA8E"/><rect x="535.1" y="1108.2" width="8" height="46.1" fill="#000" opacity="0.07"/><path d="M461.2 1108.2 Q500.2 1086.2 539.1 1108.2 Z" fill="#F8DA8E"/><path d="M478.9 1144.2 V1131.2 a7 7 0 0 1 14 0 V1144.2 Z" fill="#34466E"/><rect x="471.9" y="1127.2" width="6" height="17" fill="#4E8B5B"/><rect x="493.9" y="1127.2" width="6" height="17" fill="#4E8B5B"/><path d="M507.5 1144.2 V1131.2 a7 7 0 0 1 14 0 V1144.2 Z" fill="#34466E"/><rect x="547.8" y="1114.2" width="46.4" height="40.9" fill="#F4B6A8"/><rect x="586.2" y="1114.2" width="8" height="40.9" fill="#000" opacity="0.07"/><path d="M551.8 1114.2 Q571 1092.2 590.2 1114.2 Z" fill="#F4B6A8"/><path d="M564 1150.2 V1137.2 a7 7 0 0 1 14 0 V1150.2 Z" fill="#34466E"/><rect x="592.2" y="1107.7" width="62.1" height="45.4" fill="#F2A56A"/><rect x="646.3" y="1107.7" width="8" height="45.4" fill="#000" opacity="0.07"/><path d="M609.3 1107.7 a14 14 0 0 1 28 0 Z" fill="#C8603E"/><path d="M616.3 1143.7 V1130.7 a7 7 0 0 1 14 0 V1143.7 Z" fill="#34466E"/><rect x="609.3" y="1126.7" width="6" height="17" fill="#4E8B5B"/><rect x="631.3" y="1126.7" width="6" height="17" fill="#4E8B5B"/><rect x="653.2" y="1101.7" width="88.4" height="54.7" fill="#FFF8EC"/><rect x="733.5" y="1101.7" width="8" height="54.7" fill="#000" opacity="0.07"/><path d="M657.2 1101.7 Q697.4 1079.7 737.5 1101.7 Z" fill="#FFF8EC"/><path d="M675.6 1137.7 V1124.7 a7 7 0 0 1 14 0 V1137.7 Z" fill="#34466E"/><path d="M705.1 1137.7 V1124.7 a7 7 0 0 1 14 0 V1137.7 Z" fill="#34466E"/><rect x="698.1" y="1120.7" width="6" height="17" fill="#4E8B5B"/><rect x="720.1" y="1120.7" width="6" height="17" fill="#4E8B5B"/><rect x="745" y="1100.5" width="82.7" height="52.8" fill="#F4B6A8"/><rect x="819.6" y="1100.5" width="8" height="52.8" fill="#000" opacity="0.07"/><path d="M749 1100.5 Q786.3 1078.5 823.6 1100.5 Z" fill="#F4B6A8"/><path d="M765.5 1136.5 V1123.5 a7 7 0 0 1 14 0 V1136.5 Z" fill="#34466E"/><rect x="758.5" y="1119.5" width="6" height="17" fill="#4E8B5B"/><rect x="780.5" y="1119.5" width="6" height="17" fill="#4E8B5B"/><path d="M793.1 1136.5 V1123.5 a7 7 0 0 1 14 0 V1136.5 Z" fill="#34466E"/><rect x="786.1" y="1119.5" width="6" height="17" fill="#4E8B5B"/><rect x="808.1" y="1119.5" width="6" height="17" fill="#4E8B5B"/><rect x="831.2" y="1116" width="55.8" height="41.5" fill="#FFF8EC"/><rect x="879.1" y="1116" width="8" height="41.5" fill="#000" opacity="0.07"/><rect x="829.2" y="1111" width="59.8" height="6" fill="#FFF8EC"/><path d="M852.1 1152 V1139 a7 7 0 0 1 14 0 V1152 Z" fill="#34466E"/><rect x="845.1" y="1135" width="6" height="17" fill="#4E8B5B"/><rect x="867.1" y="1135" width="6" height="17" fill="#4E8B5B"/><rect x="893.9" y="1113.4" width="79.9" height="42.8" fill="#F8DA8E"/><rect x="965.8" y="1113.4" width="8" height="42.8" fill="#000" opacity="0.07"/><rect x="891.9" y="1108.4" width="83.9" height="6" fill="#F8DA8E"/><path d="M913.5 1149.4 V1136.4 a7 7 0 0 1 14 0 V1149.4 Z" fill="#34466E"/><rect x="906.5" y="1132.4" width="6" height="17" fill="#4E8B5B"/><rect x="928.5" y="1132.4" width="6" height="17" fill="#4E8B5B"/><path d="M940.2 1149.4 V1136.4 a7 7 0 0 1 14 0 V1149.4 Z" fill="#34466E"/><path d="M130 1130 C180 1090 262 1064 372 1050 L420 1062 L404 1130 Z" fill="#F3D8A6"/><rect x="234" y="1084" width="4" height="34" fill="#6E4B2F"/><path d="M236 1084 L202 1084 L206.6 1073 Z" fill="#FFF8EC"/><path d="M236 1084 L206.6 1073 L219 1064.9 Z" fill="#E4605A"/><path d="M236 1084 L219 1064.9 L236 1062 Z" fill="#FFF8EC"/><path d="M236 1084 L236 1062 L253 1064.9 Z" fill="#E4605A"/><path d="M236 1084 L253 1064.9 L265.4 1073 Z" fill="#FFF8EC"/><path d="M236 1084 L265.4 1073 L270 1084 Z" fill="#E4605A"/><rect x="316" y="1066" width="4" height="34" fill="#6E4B2F"/><path d="M318 1066 L284 1066 L288.6 1055 Z" fill="#FFF8EC"/><path d="M318 1066 L288.6 1055 L301 1046.9 Z" fill="#1E4B9C"/><path d="M318 1066 L301 1046.9 L318 1044 Z" fill="#FFF8EC"/><path d="M318 1066 L318 1044 L335 1046.9 Z" fill="#1E4B9C"/><path d="M318 1066 L335 1046.9 L347.4 1055 Z" fill="#FFF8EC"/><path d="M318 1066 L347.4 1055 L352 1066 Z" fill="#1E4B9C"/><rect x="302" y="1092" width="4" height="34" fill="#6E4B2F"/><path d="M304 1092 L270 1092 L274.6 1081 Z" fill="#FFF8EC"/><path d="M304 1092 L274.6 1081 L287 1072.9 Z" fill="#F2A56A"/><path d="M304 1092 L287 1072.9 L304 1070 Z" fill="#FFF8EC"/><path d="M304 1092 L304 1070 L321 1072.9 Z" fill="#F2A56A"/><path d="M304 1092 L321 1072.9 L333.4 1081 Z" fill="#FFF8EC"/><path d="M304 1092 L333.4 1081 L338 1092 Z" fill="#F2A56A"/><rect x="376" y="1080" width="4" height="34" fill="#6E4B2F"/><path d="M378 1080 L344 1080 L348.6 1069 Z" fill="#FFF8EC"/><path d="M378 1080 L348.6 1069 L361 1060.9 Z" fill="#E4605A"/><path d="M378 1080 L361 1060.9 L378 1058 Z" fill="#FFF8EC"/><path d="M378 1080 L378 1058 L395 1060.9 Z" fill="#E4605A"/><path d="M378 1080 L395 1060.9 L407.4 1069 Z" fill="#FFF8EC"/><path d="M378 1080 L407.4 1069 L412 1080 Z" fill="#E4605A"/><rect y="1124" width="900" height="76" fill="#FBF0D6"/><rect y="1124" width="900" height="6" fill="#1E4B9C"/><path d="M912 30 C840 60 760 120 650 118 C600 116 560 96 520 70" fill="none" stroke="#6E4B2F" stroke-width="9" stroke-linecap="round"/><path d="M770 92 C780 130 776 160 760 176 M676 116 C680 140 672 156 660 164" fill="none" stroke="#6E4B2F" stroke-width="5" stroke-linecap="round"/><path d="M870 48 q38 -23.75 76 0 q-38 23.75 -76 0 Z" fill="#3E7B39" transform="rotate(-160 870 48)"/><path d="M826 66 q36 -22.5 72 0 q-36 22.5 -72 0 Z" fill="#63A24C" transform="rotate(-40 826 66)"/><path d="M740 104 q37 -23.125 74 0 q-37 23.125 -74 0 Z" fill="#3E7B39" transform="rotate(150 740 104)"/><path d="M704 116 q34 -21.25 68 0 q-34 21.25 -68 0 Z" fill="#63A24C" transform="rotate(-34 704 116)"/><path d="M606 108 q33 -20.625 66 0 q-33 20.625 -66 0 Z" fill="#3E7B39" transform="rotate(-150 606 108)"/><path d="M556 84 q31 -19.375 62 0 q-31 19.375 -62 0 Z" fill="#63A24C" transform="rotate(16 556 84)"/><path d="M640 118 q29 -18.125 58 0 q-29 18.125 -58 0 Z" fill="#3E7B39" transform="rotate(70 640 118)"/><path d="M784 88 q32 -20 64 0 q-32 20 -64 0 Z" fill="#63A24C" transform="rotate(62 784 88)"/><path d="M520 70 q28 -17.5 56 0 q-28 17.5 -56 0 Z" fill="#3E7B39" transform="rotate(-120 520 70)"/><g transform="rotate(72 756 206)"><ellipse cx="756" cy="206" rx="44" ry="33" fill="#F6CB2F"/><path d="M796 200 q14 6 0 12 Z M716 200 q-12 6 0 12 Z" fill="#F6CB2F"/><ellipse cx="744" cy="193" rx="16" ry="7" fill="#FCE38A"/></g><g transform="rotate(96 652 196)"><ellipse cx="652" cy="196" rx="44" ry="33" fill="#F6CB2F"/><path d="M692 190 q14 6 0 12 Z M612 190 q-12 6 0 12 Z" fill="#F6CB2F"/><ellipse cx="640" cy="183" rx="16" ry="7" fill="#FCE38A"/></g><g transform="rotate(50 836 132)"><ellipse cx="836" cy="132" rx="44" ry="33" fill="#F6CB2F"/><path d="M876 126 q14 6 0 12 Z M796 126 q-12 6 0 12 Z" fill="#F6CB2F"/><ellipse cx="824" cy="119" rx="16" ry="7" fill="#FCE38A"/></g><path d="M744 172 q20 -12.5 40 0 q-20 12.5 -40 0 Z" fill="#63A24C" transform="rotate(110 744 172)"/><text x="456" y="408" font-family="Shrikhand" font-size="214" fill="#E4605A" text-anchor="middle">Italia</text><text x="450" y="402" font-family="Shrikhand" font-size="214" fill="#1E4B9C" text-anchor="middle">Italia</text><text x="660" y="506" font-family="Caveat Brush" font-size="70" fill="#E4605A" text-anchor="middle" transform="rotate(-7 660 506)">ciao bella!</text><g transform="translate(150 540) rotate(-12)"><circle r="91" fill="#FFFBF3"/><circle r="84" fill="none" stroke="#1E4B9C" stroke-width="4.5"/><circle r="74" fill="none" stroke="#1E4B9C" stroke-width="1.6" stroke-dasharray="3 4"/><rect x="-73" y="-20" width="146" height="36" fill="#1E4B9C"/><text x="0" y="10" font-family="Courier Prime" font-size="30" font-weight="700" fill="#FFFDF7" text-anchor="middle" letter-spacing="1">ROMA</text><text x="0" y="-36" font-family="Courier Prime" font-size="13" font-weight="700" fill="#1E4B9C" text-anchor="middle" letter-spacing="3.5">ARRIVED</text><text x="0" y="50" font-family="Courier Prime" font-size="13" font-weight="700" fill="#1E4B9C" text-anchor="middle" letter-spacing="2.5">IT · 2026</text><path d="M-58 -42L-56.4 -38.2L-52.3 -37.9L-55.4 -35.2L-54.5 -31.1L-58 -33.3L-61.5 -31.1L-60.6 -35.2L-63.7 -37.9L-59.6 -38.2Z" fill="#1E4B9C"/><path d="M58 -42L59.6 -38.2L63.7 -37.9L60.6 -35.2L61.5 -31.1L58 -33.3L54.5 -31.1L55.4 -35.2L52.3 -37.9L56.4 -38.2Z" fill="#1E4B9C"/></g><text x="60" y="1158" font-family="Courier Prime" font-size="16" font-weight="700" fill="#1E4B9C" text-anchor="start" letter-spacing="2.4">VOL. 02 — TRAVEL DIARY</text><text x="840" y="1158" font-family="Courier Prime" font-size="16" font-weight="700" fill="#1E4B9C" text-anchor="end" letter-spacing="2.4">41.9028° N · 12.4964° E</text></svg>